<svg id="visual" viewBox="0 0 900 900" width="900" height="900" xmlns="http://www.w3.org/2000/svg" xmlns:xlink="http://www.w3.org/1999/xlink" version="1.1"><path d="M0 127L13.7 116.5C27.3 106 54.7 85 82 74.5C109.3 64 136.7 64 163.8 80.5C191 97 218 130 245.2 134.5C272.3 139 299.7 115 327 118C354.3 121 381.7 151 409 155.5C436.3 160 463.7 139 491 131.5C518.3 124 545.7 130 573 130C600.3 130 627.7 124 654.8 125.5C682 127 709 136 736.2 130C763.3 124 790.7 103 818 95.5C845.3 88 872.7 94 886.3 97L900 100L900 0L886.3 0C872.7 0 845.3 0 818 0C790.7 0 763.3 0 736.2 0C709 0 682 0 654.8 0C627.7 0 600.3 0 573 0C545.7 0 518.3 0 491 0C463.7 0 436.3 0 409 0C381.7 0 354.3 0 327 0C299.7 0 272.3 0 245.2 0C218 0 191 0 163.8 0C136.7 0 109.3 0 82 0C54.7 0 27.3 0 13.7 0L0 0Z" fill="#6198ff"></path><path d="M0 244L13.7 233.5C27.3 223 54.7 202 82 208C109.3 214 136.7 247 163.8 278.5C191 310 218 340 245.2 338.5C272.3 337 299.7 304 327 295C354.3 286 381.7 301 409 308.5C436.3 316 463.7 316 491 302.5C518.3 289 545.7 262 573 269.5C600.3 277 627.7 319 654.8 317.5C682 316 709 271 736.2 242.5C763.3 214 790.7 202 818 199C845.3 196 872.7 202 886.3 205L900 208L900 98L886.3 95C872.7 92 845.3 86 818 93.5C790.7 101 763.3 122 736.2 128C709 134 682 125 654.8 123.5C627.7 122 600.3 128 573 128C545.7 128 518.3 122 491 129.5C463.7 137 436.3 158 409 153.5C381.7 149 354.3 119 327 116C299.7 113 272.3 137 245.2 132.5C218 128 191 95 163.8 78.5C136.7 62 109.3 62 82 72.5C54.7 83 27.3 104 13.7 114.5L0 125Z" fill="#3c80ff"></path><path d="M0 532L13.7 550C27.3 568 54.7 604 82 595C109.3 586 136.7 532 163.8 541C191 550 218 622 245.2 647.5C272.3 673 299.7 652 327 640C354.3 628 381.7 625 409 635.5C436.3 646 463.7 670 491 653.5C518.3 637 545.7 580 573 563.5C600.3 547 627.7 571 654.8 563.5C682 556 709 517 736.2 484C763.3 451 790.7 424 818 419.5C845.3 415 872.7 433 886.3 442L900 451L900 206L886.3 203C872.7 200 845.3 194 818 197C790.7 200 763.3 212 736.2 240.5C709 269 682 314 654.8 315.5C627.7 317 600.3 275 573 267.5C545.7 260 518.3 287 491 300.5C463.7 314 436.3 314 409 306.5C381.7 299 354.3 284 327 293C299.7 302 272.3 335 245.2 336.5C218 338 191 308 163.8 276.5C136.7 245 109.3 212 82 206C54.7 200 27.3 221 13.7 231.5L0 242Z" fill="#0066ff"></path><path d="M0 631L13.7 646C27.3 661 54.7 691 82 677.5C109.3 664 136.7 607 163.8 613C191 619 218 688 245.2 722.5C272.3 757 299.7 757 327 749.5C354.3 742 381.7 727 409 728.5C436.3 730 463.7 748 491 737.5C518.3 727 545.7 688 573 671.5C600.3 655 627.7 661 654.8 641.5C682 622 709 577 736.2 541C763.3 505 790.7 478 818 490C845.3 502 872.7 553 886.3 578.5L900 604L900 449L886.3 440C872.7 431 845.3 413 818 417.5C790.7 422 763.3 449 736.2 482C709 515 682 554 654.8 561.5C627.7 569 600.3 545 573 561.5C545.7 578 518.3 635 491 651.5C463.7 668 436.3 644 409 633.5C381.7 623 354.3 626 327 638C299.7 650 272.3 671 245.2 645.5C218 620 191 548 163.8 539C136.7 530 109.3 584 82 593C54.7 602 27.3 566 13.7 548L0 530Z" fill="#0059dd"></path><path d="M0 901L13.7 901C27.3 901 54.7 901 82 901C109.3 901 136.7 901 163.8 901C191 901 218 901 245.2 901C272.3 901 299.7 901 327 901C354.3 901 381.7 901 409 901C436.3 901 463.7 901 491 901C518.3 901 545.7 901 573 901C600.3 901 627.7 901 654.8 901C682 901 709 901 736.2 901C763.3 901 790.7 901 818 901C845.3 901 872.7 901 886.3 901L900 901L900 602L886.3 576.5C872.7 551 845.3 500 818 488C790.7 476 763.3 503 736.2 539C709 575 682 620 654.8 639.5C627.7 659 600.3 653 573 669.5C545.7 686 518.3 725 491 735.5C463.7 746 436.3 728 409 726.5C381.7 725 354.3 740 327 747.5C299.7 755 272.3 755 245.2 720.5C218 686 191 617 163.8 611C136.7 605 109.3 662 82 675.5C54.7 689 27.3 659 13.7 644L0 629Z" fill="#004cbb"></path></svg>