<svg id="visual" viewBox="0 0 900 450" width="900" height="450" xmlns="http://www.w3.org/2000/svg" xmlns:xlink="http://www.w3.org/1999/xlink" version="1.1"><rect x="0" y="0" width="900" height="450" fill="#140021"></rect><path d="M471 0L363 0L363 20L514 20L514 39L518 39L518 59L397 59L397 78L397 78L397 98L481 98L481 117L462 117L462 137L486 137L486 157L414 157L414 176L526 176L526 196L358 196L358 215L398 215L398 235L427 235L427 254L422 254L422 274L407 274L407 293L367 293L367 313L486 313L486 333L380 333L380 352L343 352L343 372L494 372L494 391L503 391L503 411L370 411L370 430L475 430L475 450L0 450L0 430L0 430L0 411L0 411L0 391L0 391L0 372L0 372L0 352L0 352L0 333L0 333L0 313L0 313L0 293L0 293L0 274L0 274L0 254L0 254L0 235L0 235L0 215L0 215L0 196L0 196L0 176L0 176L0 157L0 157L0 137L0 137L0 117L0 117L0 98L0 98L0 78L0 78L0 59L0 59L0 39L0 39L0 20L0 20L0 0L0 0Z" fill="#560090"></path><path d="M287 0L358 0L358 20L300 20L300 39L263 39L263 59L301 59L301 78L352 78L352 98L291 98L291 117L354 117L354 137L229 137L229 157L245 157L245 176L374 176L374 196L349 196L349 215L212 215L212 235L211 235L211 254L350 254L350 274L257 274L257 293L297 293L297 313L279 313L279 333L270 333L270 352L281 352L281 372L307 372L307 391L326 391L326 411L204 411L204 430L230 430L230 450L0 450L0 430L0 430L0 411L0 411L0 391L0 391L0 372L0 372L0 352L0 352L0 333L0 333L0 313L0 313L0 293L0 293L0 274L0 274L0 254L0 254L0 235L0 235L0 215L0 215L0 196L0 196L0 176L0 176L0 157L0 157L0 137L0 137L0 117L0 117L0 98L0 98L0 78L0 78L0 59L0 59L0 39L0 39L0 20L0 20L0 0L0 0Z" fill="#7700c6"></path><path d="M168 0L130 0L130 20L154 20L154 39L202 39L202 59L237 59L237 78L192 78L192 98L125 98L125 117L194 117L194 137L166 137L166 157L190 157L190 176L140 176L140 196L224 196L224 215L138 215L138 235L131 235L131 254L146 254L146 274L156 274L156 293L184 293L184 313L150 313L150 333L233 333L233 352L233 352L233 372L90 372L90 391L235 391L235 411L212 411L212 430L206 430L206 450L0 450L0 430L0 430L0 411L0 411L0 391L0 391L0 372L0 372L0 352L0 352L0 333L0 333L0 313L0 313L0 293L0 293L0 274L0 274L0 254L0 254L0 235L0 235L0 215L0 215L0 196L0 196L0 176L0 176L0 157L0 157L0 137L0 137L0 117L0 117L0 98L0 98L0 78L0 78L0 59L0 59L0 39L0 39L0 20L0 20L0 0L0 0Z" fill="#9900ff"></path></svg>